<?xml version="1.0" encoding="utf-8"?>
<!-- Generator: Adobe Illustrator 19.0.0, SVG Export Plug-In . SVG Version: 6.00 Build 0)  -->
<svg version="1.1" id="Layer_1" xmlns="http://www.w3.org/2000/svg" xmlns:xlink="http://www.w3.org/1999/xlink" x="0px" y="0px"
	 width="100px" height="100px" viewBox="0 0 100 100" style="enable-background:new 0 0 100 100;" xml:space="preserve">
<g id="XMLID_27_">
	<path id="XMLID_29_" d="M64.8,77.5c0,1.6-1.3,3-3,3H38.2c-1.6,0-3-1.3-3-3v-5.9c0-1.6,1.3-3,3-3h3V50.9h-3c-1.6,0-3-1.3-3-3v-5.9
		c0-1.6,1.3-3,3-3h17.7c1.6,0,3,1.3,3,3v26.6h3c1.6,0,3,1.3,3,3V77.5z M58.9,27.3c0,1.6-1.3,3-3,3H44.1c-1.6,0-3-1.3-3-3v-8.9
		c0-1.6,1.3-3,3-3h11.8c1.6,0,3,1.3,3,3V27.3z"/>
</g>
<g id="XMLID_28_">
</g>
<g id="XMLID_32_">
</g>
<g id="XMLID_33_">
</g>
<g id="XMLID_34_">
</g>
<g id="XMLID_35_">
</g>
<g id="XMLID_36_">
</g>
</svg>
