<?xml version="1.0" encoding="utf-8"?>
<!-- Generator: Adobe Illustrator 19.0.0, SVG Export Plug-In . SVG Version: 6.00 Build 0)  -->
<svg version="1.1" id="Layer_1" xmlns="http://www.w3.org/2000/svg" xmlns:xlink="http://www.w3.org/1999/xlink" x="0px" y="0px"
	 viewBox="0 0 100 100" style="enable-background:new 0 0 100 100;" xml:space="preserve">
<g id="XMLID_27_">
	<path id="XMLID_29_" d="M74,44.3L51.1,67.1c-0.3,0.3-0.7,0.5-1.1,0.5s-0.8-0.2-1.1-0.5L26,44.3c-0.3-0.3-0.5-0.7-0.5-1.1
		s0.2-0.8,0.5-1.1l2.5-2.5c0.3-0.3,0.7-0.5,1.1-0.5c0.4,0,0.8,0.2,1.1,0.5L50,58.8l19.3-19.3c0.3-0.3,0.7-0.5,1.1-0.5
		c0.4,0,0.8,0.2,1.1,0.5L74,42c0.3,0.3,0.5,0.7,0.5,1.1S74.3,44,74,44.3z"/>
</g>
<g id="XMLID_28_">
</g>
<g id="XMLID_31_">
</g>
<g id="XMLID_32_">
</g>
<g id="XMLID_33_">
</g>
<g id="XMLID_34_">
</g>
<g id="XMLID_35_">
</g>
</svg>
